<?xml version="1.0" encoding="iso-8859-1"?>
<!-- Generator: Adobe Illustrator 19.0.0, SVG Export Plug-In . SVG Version: 6.00 Build 0)  -->
<svg version="1.1" id="Layer_1" xmlns="http://www.w3.org/2000/svg" xmlns:xlink="http://www.w3.org/1999/xlink" x="0px" y="0px"
	 viewBox="0 0 512 512" style="enable-background:new 0 0 512 512;" xml:space="preserve">
<g>
	<g>
		<path d="M341.854,259.755l-76.8-76.8c-5.001-5-13.099-5-18.099,0l-76.8,76.8c-5.001,5.001-5.001,13.099,0,18.099
			s13.099,5.001,18.099,0l54.946-54.946V499.2c0,7.074,5.726,12.8,12.8,12.8c7.074,0,12.8-5.726,12.8-12.8V222.899l54.946,54.955
			c2.5,2.5,5.777,3.746,9.054,3.746c3.277,0,6.554-1.246,9.054-3.746C346.854,272.853,346.854,264.755,341.854,259.755z"/>
	</g>
</g>
<g>
	<g>
		<path d="M391.305,103.834C374.98,43.349,320.162,0,256,0S137.028,43.349,120.695,103.834C52.54,113.613,0,172.382,0,243.2
			C0,320.836,63.164,384,140.8,384h76.8v-25.6c-28.971,0-56.149,0-76.8,0c-63.625,0-115.2-51.575-115.2-115.2S77.175,128,140.8,128
			c0.435,0,0.845,0.119,1.28,0.128C148.463,70.545,196.719,25.6,256,25.6s107.537,44.945,113.92,102.528
			c0.435-0.009,0.845-0.128,1.28-0.128c63.625,0,115.2,51.576,115.2,115.2s-51.575,115.2-115.2,115.2c-20.651,0-47.829,0-76.8,0V384
			h76.8c77.636,0,140.8-63.164,140.8-140.8C512,172.382,459.46,113.613,391.305,103.834z"/>
	</g>
</g>
<g>
</g>
<g>
</g>
<g>
</g>
<g>
</g>
<g>
</g>
<g>
</g>
<g>
</g>
<g>
</g>
<g>
</g>
<g>
</g>
<g>
</g>
<g>
</g>
<g>
</g>
<g>
</g>
<g>
</g>
</svg>
