<?xml version="1.0" encoding="iso-8859-1"?>
<!-- Generator: Adobe Illustrator 19.0.0, SVG Export Plug-In . SVG Version: 6.00 Build 0)  -->
<svg version="1.1" id="Layer_1" xmlns="http://www.w3.org/2000/svg" xmlns:xlink="http://www.w3.org/1999/xlink" x="0px" y="0px"
	 viewBox="0 0 512 512" style="enable-background:new 0 0 512 512;" xml:space="preserve">
<g>
	<g>
		<path d="M340.275,194.423c-3.328-2.423-7.629-3.046-11.529-1.775l-153.6,51.2c-5.222,1.749-8.747,6.647-8.747,12.151v171.58
			c-7.518-3.217-16.162-5.18-25.6-5.18c-28.698,0-51.2,16.879-51.2,38.4s22.502,38.4,51.2,38.4c28.698,0,51.2-16.879,51.2-38.4
			V265.225l128-42.675v179.43c-7.518-3.217-16.162-5.18-25.6-5.18c-28.698,0-51.2,16.879-51.2,38.4s22.502,38.4,51.2,38.4
			c28.698,0,51.2-16.879,51.2-38.4V204.8C345.6,200.678,343.629,196.821,340.275,194.423z M140.8,473.6
			c-15.625,0-25.6-7.578-25.6-12.8c0-5.222,9.975-12.8,25.6-12.8c15.625,0,25.6,7.578,25.6,12.8
			C166.4,466.022,156.425,473.6,140.8,473.6z M294.4,448c-15.625,0-25.6-7.578-25.6-12.8s9.975-12.8,25.6-12.8
			c15.625,0,25.6,7.578,25.6,12.8S310.025,448,294.4,448z"/>
	</g>
</g>
<g>
	<g>
		<path d="M391.305,116.634C374.98,56.149,320.162,12.8,256,12.8S137.028,56.149,120.695,116.634C52.54,126.413,0,185.182,0,256
			c0,77.636,63.164,140.8,140.8,140.8v-25.6c-63.625,0-115.2-51.575-115.2-115.2s51.576-115.2,115.2-115.2
			c0.435,0,0.845,0.12,1.28,0.128C148.463,83.345,196.719,38.4,256,38.4s107.537,44.945,113.92,102.528
			c0.435-0.008,0.845-0.128,1.28-0.128c63.625,0,115.2,51.576,115.2,115.2s-51.575,115.2-115.2,115.2v25.6
			c77.636,0,140.8-63.164,140.8-140.8C512,185.182,459.46,126.413,391.305,116.634z"/>
	</g>
</g>
<g>
</g>
<g>
</g>
<g>
</g>
<g>
</g>
<g>
</g>
<g>
</g>
<g>
</g>
<g>
</g>
<g>
</g>
<g>
</g>
<g>
</g>
<g>
</g>
<g>
</g>
<g>
</g>
<g>
</g>
</svg>
