<?xml version="1.0" encoding="iso-8859-1"?>
<!-- Generator: Adobe Illustrator 19.0.0, SVG Export Plug-In . SVG Version: 6.00 Build 0)  -->
<svg version="1.1" id="Layer_1" xmlns="http://www.w3.org/2000/svg" xmlns:xlink="http://www.w3.org/1999/xlink" x="0px" y="0px"
	 viewBox="0 0 512 512" style="enable-background:new 0 0 512 512;" xml:space="preserve">
<g>
	<g>
		<path d="M384,243.2H128c-14.14,0-25.6,11.46-25.6,25.6V448c0,14.14,11.46,25.6,25.6,25.6h256c14.14,0,25.6-11.46,25.6-25.6V268.8
			C409.6,254.66,398.14,243.2,384,243.2z M183.467,448l45.73-34.304L263.501,448H183.467z M384,448h-84.301l-15.829-15.829
			l50.304-67.098L384,414.899V448z M384,378.701l-42.146-42.146c-2.603-2.628-6.272-3.9-9.95-3.729
			c-3.703,0.273-7.125,2.125-9.353,5.103l-56.969,75.955l-26.129-26.129c-4.497-4.497-11.674-4.975-16.725-1.203L140.792,448H128
			V268.8h256V378.701z"/>
	</g>
</g>
<g>
	<g>
		<path d="M391.305,142.234C374.98,81.749,320.162,38.4,256,38.4S137.028,81.749,120.695,142.234C52.54,152.013,0,210.782,0,281.6
			c0,54.579,31.283,101.905,76.8,125.252v-29.508c-30.857-20.668-51.2-55.817-51.2-95.744c0-63.625,51.576-115.2,115.2-115.2
			c0.435,0,0.845,0.119,1.28,0.128C148.463,108.945,196.719,64,256,64s107.537,44.945,113.92,102.528
			c0.435-0.009,0.845-0.128,1.28-0.128c63.625,0,115.2,51.575,115.2,115.2c0,39.927-20.343,75.076-51.2,95.744v29.508
			C480.717,383.497,512,336.179,512,281.6C512,210.782,459.46,152.013,391.305,142.234z"/>
	</g>
</g>
<g>
	<g>
		<path d="M192,294.4c-21.205,0-38.4,17.195-38.4,38.4c0,21.205,17.195,38.4,38.4,38.4s38.4-17.195,38.4-38.4
			C230.4,311.595,213.205,294.4,192,294.4z M192,345.6c-7.057,0-12.8-5.743-12.8-12.8c0-7.057,5.743-12.8,12.8-12.8
			s12.8,5.743,12.8,12.8C204.8,339.857,199.057,345.6,192,345.6z"/>
	</g>
</g>
<g>
</g>
<g>
</g>
<g>
</g>
<g>
</g>
<g>
</g>
<g>
</g>
<g>
</g>
<g>
</g>
<g>
</g>
<g>
</g>
<g>
</g>
<g>
</g>
<g>
</g>
<g>
</g>
<g>
</g>
</svg>
