<?xml version="1.0" encoding="iso-8859-1"?>
<!-- Generator: Adobe Illustrator 19.0.0, SVG Export Plug-In . SVG Version: 6.00 Build 0)  -->
<svg version="1.1" id="Layer_1" xmlns="http://www.w3.org/2000/svg" xmlns:xlink="http://www.w3.org/1999/xlink" x="0px" y="0px"
	 viewBox="0 0 512 512" style="enable-background:new 0 0 512 512;" xml:space="preserve">
<g>
	<g>
		<path d="M294.4,204.8H140.8v281.6h230.4V281.6L294.4,204.8z M294.4,241.007l40.593,40.593H294.4V241.007z M345.6,460.8H166.4
			V230.4h102.4v76.8h76.8V460.8z"/>
	</g>
</g>
<g>
	<g>
		<rect x="192" y="332.8" width="128" height="25.6"/>
	</g>
</g>
<g>
	<g>
		<rect x="192" y="384" width="128" height="25.6"/>
	</g>
</g>
<g>
	<g>
		<path d="M391.305,129.434C374.98,68.949,320.162,25.6,256,25.6S137.028,68.949,120.695,129.434C52.54,139.213,0,197.982,0,268.8
			c0,68.881,49.758,126.268,115.2,138.351v-26.232C63.94,369.246,25.6,323.593,25.6,268.8c0-63.625,51.576-115.2,115.2-115.2
			c0.435,0,0.845,0.119,1.28,0.128C148.463,96.145,196.719,51.2,256,51.2s107.537,44.945,113.92,102.528
			c0.435-0.009,0.845-0.128,1.28-0.128c63.625,0,115.2,51.575,115.2,115.2c0,54.793-38.34,100.446-89.6,112.12v26.231
			C462.242,395.068,512,337.681,512,268.8C512,197.982,459.46,139.213,391.305,129.434z"/>
	</g>
</g>
<g>
</g>
<g>
</g>
<g>
</g>
<g>
</g>
<g>
</g>
<g>
</g>
<g>
</g>
<g>
</g>
<g>
</g>
<g>
</g>
<g>
</g>
<g>
</g>
<g>
</g>
<g>
</g>
<g>
</g>
</svg>
