<?xml version="1.0" encoding="iso-8859-1"?>
<!-- Generator: Adobe Illustrator 16.0.0, SVG Export Plug-In . SVG Version: 6.00 Build 0)  -->
<!DOCTYPE svg PUBLIC "-//W3C//DTD SVG 1.1//EN" "http://www.w3.org/Graphics/SVG/1.1/DTD/svg11.dtd">
<svg version="1.1" id="Capa_1" xmlns="http://www.w3.org/2000/svg" xmlns:xlink="http://www.w3.org/1999/xlink" x="0px" y="0px"
	 width="30.732px" height="30.732px" viewBox="0 0 30.732 30.732" style="enable-background:new 0 0 30.732 30.732;"
	 xml:space="preserve">
<g>
	<path d="M26.133,13.531c-0.091-0.605-0.244-1.206-0.458-1.798c-1.319-3.644-4.812-6.093-8.687-6.093
		c-1.07,0-2.128,0.187-3.143,0.554c-2.491,0.902-4.474,2.846-5.444,5.289c-0.291-0.03-0.581-0.046-0.87-0.046
		C3.378,11.437,0,14.484,0,18.23c0,3.525,2.827,6.365,6.722,6.75l1.099,0.091v-0.104h15.994v0.125l1.088-0.096
		c3.377-0.297,5.83-2.756,5.83-5.851C30.732,16.544,28.84,14.283,26.133,13.531z M25.041,22.968H6.821L6.728,22.97
		C3.977,22.618,2,20.651,2,18.23c0-2.643,2.48-4.794,5.531-4.794c0.442,0,0.892,0.048,1.337,0.142l0.909,0.192l0.259-0.893
		c0.641-2.222,2.319-4.017,4.489-4.803c0.796-0.289,1.625-0.435,2.463-0.435c3.037,0,5.773,1.919,6.806,4.773
		c0.239,0.66,0.382,1.333,0.424,2.001l0.052,0.794l0.785,0.129c2.133,0.353,3.68,1.955,3.68,3.811
		C28.732,21.118,27.23,22.655,25.041,22.968z"/>
</g>
<g>
</g>
<g>
</g>
<g>
</g>
<g>
</g>
<g>
</g>
<g>
</g>
<g>
</g>
<g>
</g>
<g>
</g>
<g>
</g>
<g>
</g>
<g>
</g>
<g>
</g>
<g>
</g>
<g>
</g>
</svg>
