<?xml version="1.0"?>
<svg xmlns="http://www.w3.org/2000/svg" xmlns:xlink="http://www.w3.org/1999/xlink" version="1.1" id="Layer_1" x="0px" y="0px" viewBox="0 0 512 512" style="enable-background:new 0 0 512 512;" xml:space="preserve" width="512px" height="512px"><g><g>
	<g>
		<path d="M256,179.2c-84.693,0-153.6,68.907-153.6,153.6S171.307,486.4,256,486.4s153.6-68.907,153.6-153.6    S340.693,179.2,256,179.2z M194.594,221.141c-6.306,10.197-11.742,21.914-16.111,34.859H154.18    C165.018,241.655,178.765,229.879,194.594,221.141z M138.803,281.6h32.802c-2.509,12.186-4.19,25.028-4.83,38.4h-37.487    C130.645,306.509,133.589,293.521,138.803,281.6z M138.803,384c-5.214-11.921-8.149-24.909-9.515-38.4h37.487    c0.64,13.372,2.321,26.214,4.83,38.4H138.803z M154.18,409.6h24.303c4.369,12.945,9.813,24.661,16.119,34.859    C178.765,435.721,165.018,423.945,154.18,409.6z M243.2,457.557c-14.157-6.554-27.827-23.535-37.513-47.957H243.2V457.557z     M243.2,384h-45.559c-2.705-11.716-4.207-24.747-4.932-38.4H243.2V384z M243.2,320h-50.492c0.717-13.653,2.219-26.684,4.924-38.4    H243.2V320z M243.2,256h-37.513c9.685-24.422,23.356-41.395,37.513-47.957V256z M373.197,281.6    c5.222,11.921,8.158,24.909,9.515,38.4h-37.487c-0.64-13.372-2.321-26.214-4.83-38.4H373.197z M357.82,256h-24.303    c-4.369-12.937-9.805-24.661-16.111-34.859C333.235,229.879,346.982,241.655,357.82,256z M268.8,208.043    c14.157,6.554,27.827,23.535,37.513,47.957H268.8V208.043z M268.8,281.6h45.56c2.705,11.716,4.207,24.747,4.924,38.4H268.8V281.6z     M268.8,457.557V409.6h37.513C296.627,434.022,282.957,450.995,268.8,457.557z M268.8,384v-38.4h50.492    c-0.717,13.653-2.219,26.684-4.924,38.4H268.8z M317.397,444.459c6.306-10.197,11.742-21.914,16.119-34.859h24.303    C346.982,423.945,333.235,435.721,317.397,444.459z M373.197,384h-32.802c2.509-12.186,4.19-25.028,4.83-38.4h37.487    C381.355,359.091,378.411,372.079,373.197,384z" data-original="#000000" class="active-path" data-old_color="#1C1C1C" fill="#1D1D1D"/>
	</g>
</g><g>
	<g>
		<path d="M391.305,129.434C374.972,68.949,320.162,25.6,256,25.6S137.028,68.949,120.695,129.434C52.54,139.213,0,197.982,0,268.8    c0,59.708,37.419,110.72,89.984,131.157c-4.361-10.743-7.706-21.99-9.924-33.647C47.462,345.967,25.6,310.059,25.6,268.8    c0-63.625,51.576-115.2,115.2-115.2c0.435,0,0.845,0.119,1.28,0.128C148.463,96.145,196.719,51.2,256,51.2    s107.537,44.945,113.92,102.528c0.435-0.009,0.845-0.128,1.28-0.128c63.625,0,115.2,51.575,115.2,115.2    c0,41.259-21.862,77.167-54.46,97.51c-2.219,11.657-5.564,22.903-9.924,33.647C474.581,379.52,512,328.508,512,268.8    C512,197.982,459.46,139.213,391.305,129.434z" data-original="#000000" class="active-path" data-old_color="#1C1C1C" fill="#1D1D1D"/>
	</g>
</g></g> </svg>
