<?xml version="1.0" encoding="iso-8859-1"?>
<!-- Generator: Adobe Illustrator 19.0.0, SVG Export Plug-In . SVG Version: 6.00 Build 0)  -->
<svg version="1.1" id="Layer_1" xmlns="http://www.w3.org/2000/svg" xmlns:xlink="http://www.w3.org/1999/xlink" x="0px" y="0px"
	 viewBox="0 0 512 512" style="enable-background:new 0 0 512 512;" xml:space="preserve">
<g>
	<g>
		<path d="M466.231,124.064h-10.13V32.038c0-2.197-1.831-4.027-4.027-4.027H56.021c-2.197,0-4.027,1.831-4.027,4.027v92.026H42.23
			C18.185,124.064,0,142.616,0,167.147v272.05c0,25.143,18.551,44.793,42.23,44.793h424.001c24.41,0,45.769-20.992,45.769-44.793
			v-272.05C512,143.836,491.008,124.064,466.231,124.064z M456.1,131.997h10.131c7.445,0,14.524,2.197,20.504,5.858L456.1,162.632
			V131.997z M60.049,168.002V36.066h387.997v132.059c0,0.366,0,0.732,0.122,0.976l-62.001,50.162H218.225
			c-2.197,0-4.027,1.831-4.027,4.027c0,2.196,1.831,4.027,4.027,4.027H376.28l-50.406,40.765H184.052
			c-0.488,0-0.976,0.122-1.464,0.244l-49.918-40.277h51.383c2.197,0,4.027-1.831,4.027-4.027c0-2.196-1.831-4.027-4.027-4.027
			h-60.049c-0.366,0-0.732,0.122-1.098,0.122l-63.101-50.894C59.927,168.856,60.049,168.368,60.049,168.002z M315.987,276.016
			l-61.757,50.04l-62.001-50.04H315.987z M42.108,131.998h9.886v31l-30.268-24.41C27.34,134.439,34.418,131.998,42.108,131.998z
			 M504.189,439.197h-0.122v0c0,9.276-4.027,18.063-10.375,24.777L315.377,319.588c-1.709-1.342-4.271-1.098-5.614,0.61
			c-1.342,1.709-1.098,4.271,0.61,5.614L487.59,469.222c-6.102,4.271-13.548,6.834-21.358,6.834H42.23
			c-7.811,0-15.012-2.685-20.748-7.323l176.606-142.92c1.709-1.342,1.953-3.905,0.61-5.614c-1.342-1.709-3.905-1.953-5.614-0.61
			L15.866,462.996c-4.882-6.346-7.934-14.646-7.934-23.8v-272.05c0-8.91,2.929-16.965,7.934-23.067l235.8,190.154
			c0.732,0.61,1.587,0.854,2.563,0.854c0.854,0,1.831-0.244,2.563-0.854l72.132-58.34c1.342-0.244,2.319-1.098,2.929-2.319
			L493.326,142.86c6.591,6.346,10.863,15.012,10.863,24.288V439.197z"/>
	</g>
</g>
<g>
	<g>
		<path d="M403.986,75.976H103.987c-2.197,0-4.027,1.831-4.027,4.027c0,2.197,1.83,4.027,4.027,4.027h299.999
			c2.197,0,4.027-1.831,4.027-4.027C408.013,77.807,406.182,75.976,403.986,75.976z"/>
	</g>
</g>
<g>
	<g>
		<path d="M403.986,124.064H252.033c-2.197,0-4.027,1.831-4.027,4.027s1.831,4.027,4.027,4.027h151.953
			c2.197,0,4.027-1.831,4.027-4.027C408.013,125.773,406.182,124.064,403.986,124.064z"/>
	</g>
</g>
<g>
	<g>
		<path d="M212.001,123.942H103.987c-2.197,0-4.027,1.831-4.027,4.027s1.83,4.027,4.027,4.027h108.014
			c2.197,0,4.027-1.831,4.027-4.027C216.028,125.773,214.197,123.942,212.001,123.942z"/>
	</g>
</g>
<g>
	<g>
		<path d="M403.986,172.03h-72.01c-2.197,0-4.027,1.831-4.027,4.027c0,2.197,1.831,4.027,4.027,4.027h72.01
			c2.197,0,4.027-1.831,4.027-4.027C408.013,173.86,406.182,172.03,403.986,172.03z"/>
	</g>
</g>
<g>
	<g>
		<path d="M291.944,172.031H103.987c-2.197,0-4.027,1.831-4.027,4.027c0,2.196,1.83,4.027,4.027,4.027h187.957
			c2.197,0,4.027-1.831,4.027-4.027C295.971,173.862,294.14,172.031,291.944,172.031z"/>
	</g>
</g>
<g>
</g>
<g>
</g>
<g>
</g>
<g>
</g>
<g>
</g>
<g>
</g>
<g>
</g>
<g>
</g>
<g>
</g>
<g>
</g>
<g>
</g>
<g>
</g>
<g>
</g>
<g>
</g>
<g>
</g>
</svg>
