<?xml version="1.0"?>
<svg xmlns="http://www.w3.org/2000/svg" xmlns:xlink="http://www.w3.org/1999/xlink" version="1.1" id="Capa_1" x="0px" y="0px" viewBox="0 0 512 512" style="enable-background:new 0 0 512 512;" xml:space="preserve" width="512px" height="512px" class=""><g><circle style="fill:#662E57;" cx="256" cy="256" r="256" data-original="#662E57" class=""/><path style="fill:#590F38;" d="M263.726,511.874C401.536,507.788,512,394.799,512,256c0-12.033-0.85-23.866-2.456-35.457  L408.455,119.454l-304.91,221.179l72.832,72.833l-6.479,4.581L263.726,511.874z" data-original="#590F38" class=""/><polygon style="fill:#E0E0E0;" points="327.077,399.614 184.923,399.614 195.615,320.095 316.385,320.095 " data-original="#E0E0E0" class=""/><polygon style="fill:#C0C0C0;" points="316.385,320.095 255.952,320.095 255.952,399.614 327.077,399.614 " data-original="#C0C0C0" class=""/><rect x="103.55" y="119.45" style="fill:#FFFFFF;" width="304.91" height="221.18" data-original="#FFFFFF"/><rect x="255.95" y="119.45" style="fill:#E0E0E0;" width="152.5" height="221.18" data-original="#E0E0E0" class=""/><rect x="120.13" y="137.36" style="fill:#333333;" width="271.73" height="144.82" data-original="#333333" class=""/><rect x="255.95" y="137.36" style="fill:#1A1A1A;" width="135.91" height="144.82" data-original="#1A1A1A" class=""/><rect x="315.51" y="176.15" style="fill:#0074A3;" width="52.31" height="106.03" data-original="#0074A3" class=""/><rect x="147.52" y="161.76" style="fill:#FF6838;" width="30.544" height="120.42" data-original="#FF6838" class=""/><rect x="161.52" y="161.76" style="fill:#AE4E32;" width="16.751" height="120.42" data-original="#AE4E32" class=""/><rect x="299.88" y="152.63" style="fill:#FF6838;" width="41.778" height="129.55" data-original="#FF6838" class=""/><rect x="320" y="152.63" style="fill:#AE4E32;" width="21.663" height="129.55" data-original="#AE4E32" class=""/><rect x="269.34" y="161.76" style="fill:#C0C0C0;" width="30.544" height="120.42" data-original="#C0C0C0" class=""/><rect x="285.5" y="161.76" style="fill:#758F9B;" width="14.385" height="120.42" data-original="#758F9B" class=""/><rect x="178.06" y="152.63" style="fill:#FFCF35;" width="38.97" height="129.55" data-original="#FFCF35" class=""/><rect x="196" y="152.63" style="fill:#FFB344;" width="21.03" height="129.55" data-original="#FFB344" class=""/><rect x="217.03" y="176.15" style="fill:#35CCFF;" width="52.31" height="106.03" data-original="#35CCFF"/><rect x="242" y="176.15" style="fill:#008CC3;" width="27.341" height="106.03" data-original="#008CC3" class=""/><polygon style="fill:#0074A3;" points="217.03,214.633 217.03,188.304 269.341,188.267 269.341,214.597 " data-original="#0074A3" class=""/><polygon style="fill:#005C83;" points="269.341,188.267 242,188.286 242,214.616 269.341,214.597 " data-original="#005C83" class=""/><rect x="277.06" y="176.15" style="fill:#E0E0E0;" width="15.1" height="76.886" data-original="#E0E0E0" class=""/><rect x="285.5" y="176.15" style="fill:#C0C0C0;" width="6.661" height="76.886" data-original="#C0C0C0" class=""/><rect x="191.75" y="161.76" style="fill:#FFB344;" width="10.883" height="86.72" data-original="#FFB344" class=""/><rect x="196" y="161.76" style="fill:#E2A700;" width="6.636" height="86.72" data-original="#E2A700" class=""/><rect x="157.63" y="176.15" style="fill:#AE4E32;" width="10.32" height="69.864" data-original="#AE4E32" class=""/><polygon style="fill:#993C26;" points="167.949,176.153 162.789,176.197 162.789,246.061 167.949,246.018 " data-original="#993C26"/><rect x="299.88" y="165.97" style="fill:#AE4E32;" width="41.778" height="55.997" data-original="#AE4E32" class=""/><rect x="320" y="165.97" style="fill:#A0432D" width="21.663" height="55.997" data-original="#A0432D" class="active-path"/><rect x="169.9" y="389.61" style="fill:#FFFFFF;" width="172.2" height="28.437" data-original="#FFFFFF"/><rect x="255.95" y="389.61" style="fill:#E0E0E0;" width="86.15" height="28.438" data-original="#E0E0E0" class=""/></g> </svg>
